<?xml version="1.0" standalone="no"?>
<!DOCTYPE svg PUBLIC "-//W3C//DTD SVG 20010904//EN"
 "http://www.w3.org/TR/2001/REC-SVG-20010904/DTD/svg10.dtd">
<svg version="1.0" xmlns="http://www.w3.org/2000/svg"
 width="260.000000pt" height="291.000000pt" viewBox="0 0 260.000000 291.000000"
 preserveAspectRatio="xMidYMid meet">

<g transform="translate(0.000000,291.000000) scale(0.100000,-0.100000)"
fill="#000000" stroke="none">
<path d="M1130 2848 c-41 -28 -105 -82 -142 -119 l-68 -68 -2 -613 -3 -613
-339 -71 c-203 -43 -342 -78 -347 -86 -19 -28 -68 -197 -74 -255 -7 -57 -6
-61 11 -57 77 18 728 154 739 154 13 0 15 -31 15 -194 0 -146 -3 -195 -12
-198 -7 -2 -194 -42 -415 -89 l-403 -84 -19 -45 c-20 -46 -54 -172 -66 -242
-5 -32 -3 -38 12 -38 10 0 215 43 457 94 368 79 446 99 485 123 37 23 67 60
151 183 l105 155 3 202 c2 112 4 203 6 203 1 0 64 13 139 30 76 16 144 30 152
30 13 0 15 -44 15 -310 l0 -310 23 5 c12 3 225 48 472 100 248 52 460 99 472
105 16 7 29 32 52 102 28 89 56 216 49 224 -2 1 -22 -1 -43 -6 -92 -22 -699
-150 -712 -150 -10 0 -13 32 -13 154 l0 155 73 15 c39 9 193 42 341 74 l269
57 25 65 c25 68 66 249 58 257 -3 3 -168 -29 -368 -72 -200 -42 -370 -77 -378
-78 -13 -2 -16 68 -20 556 l-5 559 -65 -43 c-36 -24 -102 -79 -147 -123 l-83
-79 -2 -471 -3 -471 -125 -27 c-69 -14 -137 -29 -152 -32 l-28 -5 0 699 c0
385 -4 700 -8 700 -5 0 -42 -23 -82 -52z"/>
<path d="M2250 470 c-173 -37 -387 -83 -474 -102 l-160 -34 -27 -74 c-29 -81
-64 -238 -55 -247 7 -7 968 195 977 205 20 21 89 267 89 318 0 8 -44 0 -350
-66z"/>
</g>
</svg>
